<svg xmlns="http://www.w3.org/2000/svg" viewBox="100 17 800 803"><path d="M210 170L790 170L804 171L817 175L829 182L840 190L848 201L855 213L859 226L860 240L860 710L859 724L855 737L848 749L840 759L829 768L817 775L804 779L790 780L210 780L196 779L183 775L171 768L161 759L152 749L145 737L141 724L140 710L140 240L141 226L145 213L152 201L161 190L171 182L183 175L196 171L210 170M744 390L256 390L251 390L246 392L242 394L238 398L234 402L232 406L231 411L230 416L230 664L231 669L232 674L234 678L238 682L242 686L246 688L251 689L256 690L744 690L749 689L754 688L758 686L762 682L766 678L768 674L770 669L770 664L770 416L770 411L768 406L766 402L762 398L758 394L754 392L749 390L744 390M292 95L292 90L293 85L295 80L297 76L300 72L303 68L307 65L311 62L315 60L320 58L325 57L330 57L335 57L340 58L345 60L349 62L353 65L357 68L360 72L363 76L365 80L367 85L368 90L368 95L368 240L368 245L367 250L365 255L363 259L360 263L357 267L353 270L349 273L345 275L340 277L335 278L330 278L325 278L320 277L315 275L311 273L307 270L303 267L300 263L297 259L295 255L293 250L292 245L292 240L292 95M632 95L632 90L633 85L635 80L637 76L640 72L643 68L647 65L651 62L655 60L660 58L665 57L670 57L675 57L680 58L685 60L689 62L693 65L697 68L700 72L703 76L705 80L707 85L708 90L708 95L708 240L708 245L707 250L705 255L703 259L700 263L697 267L693 270L689 273L685 275L680 277L675 278L670 278L665 278L660 277L655 275L651 273L647 270L643 267L640 263L637 259L635 255L633 250L632 245L632 240L632 95M392 491L392 495L392 499L391 506L388 513L384 519L380 525L374 529L368 533L361 536L354 537L346 537L339 536L332 533L326 529L320 525L316 519L312 513L309 506L308 499L308 491L309 484L312 477L316 471L320 465L326 461L332 457L339 454L346 453L354 453L361 454L368 457L374 461L380 465L384 471L388 477L391 484L392 491M542 491L542 495L542 499L541 506L538 513L534 519L530 525L524 529L518 533L511 536L504 537L496 537L489 536L482 533L476 529L470 525L466 519L462 513L459 506L458 499L458 491L459 484L462 477L466 471L470 465L476 461L482 457L489 454L496 453L504 453L511 454L518 457L524 461L530 465L534 471L538 477L541 484L542 491M692 491L692 495L692 499L691 506L688 513L684 519L680 525L674 529L668 533L661 536L654 537L646 537L639 536L632 533L626 529L620 525L616 519L612 513L609 506L608 499L608 491L609 484L612 477L616 471L620 465L626 461L632 457L639 454L646 453L654 453L661 454L668 457L674 461L680 465L684 471L688 477L691 484L692 491M392 606L392 610L392 614L391 621L388 628L384 634L380 640L374 644L368 648L361 651L354 652L346 652L339 651L332 648L326 644L320 640L316 634L312 628L309 621L308 614L308 606L309 599L312 592L316 586L320 580L326 576L332 572L339 569L346 568L354 568L361 569L368 572L374 576L380 580L384 586L388 592L391 599L392 606M542 606L542 610L542 614L541 621L538 628L534 634L530 640L524 644L518 648L511 651L504 652L496 652L489 651L482 648L476 644L470 640L466 634L462 628L459 621L458 614L458 606L459 599L462 592L466 586L470 580L476 576L482 572L489 569L496 568L504 568L511 569L518 572L524 576L530 580L534 586L538 592L541 599L542 606M692 606L692 610L692 614L691 621L688 628L684 634L680 640L674 644L668 648L661 651L654 652L646 652L639 651L632 648L626 644L620 640L616 634L612 628L609 621L608 614L608 606L609 599L612 592L616 586L620 580L626 576L632 572L639 569L646 568L654 568L661 569L668 572L674 576L680 580L684 586L688 592L691 599"/></svg>